<svg version="1.1" id="Layer_1" xmlns="http://www.w3.org/2000/svg" xmlns:xlink="http://www.w3.org/1999/xlink" x="0px" y="0px"
	 width="100%" viewBox="0 0 300 300" enable-background="new 0 0 300 300" xml:space="preserve">
<path fill="#FEFEFE" opacity="1.000000" stroke="none" 
	d="
M204.000000,301.000000 
	C137.333344,301.000000 71.166618,300.966217 5.000226,301.096619 
	C1.575610,301.103363 0.900213,300.424103 0.904390,296.999908 
	C1.023108,199.666748 1.023102,102.333374 0.904407,5.000206 
	C0.900232,1.576278 1.575718,0.900206 5.000026,0.904383 
	C102.333191,1.023108 199.666565,1.023097 296.999725,0.904416 
	C300.423523,0.900241 301.099823,1.575542 301.095642,4.999972 
	C300.976929,102.333145 300.976898,199.666534 301.095581,296.999695 
	C301.099731,300.423431 300.427307,301.118652 296.999634,301.099701 
	C266.167175,300.929077 235.333389,301.000000 204.000000,301.000000 
z"/>
<path fill="#4DC04B" opacity="1.000000" stroke="none" 
	d="
M145.951385,159.223145 
	C134.571365,145.013412 123.594269,131.020233 112.321167,117.269760 
	C109.505119,113.834854 108.649185,110.533737 109.475243,106.284889 
	C111.601845,95.346687 113.460167,84.356491 115.468353,73.394890 
	C115.757263,71.817886 115.650017,69.900345 117.625252,69.226608 
	C119.661247,68.532127 120.613396,70.143799 121.703285,71.369690 
	C133.527939,84.669907 145.278839,98.036911 157.229370,111.223007 
	C159.800095,114.059547 160.212708,116.901291 159.414688,120.362190 
	C157.659317,127.974953 156.014603,135.613220 154.242554,143.658997 
	C155.507156,147.118851 153.236145,149.803802 153.281891,153.103470 
	C153.056961,155.354004 152.575790,157.134720 151.360474,159.083405 
	C149.494904,160.302490 147.882019,160.341141 145.951385,159.223145 
z"/>
<path fill="#AFB0B4" opacity="1.000000" stroke="none" 
	d="
M145.142487,158.937164 
	C147.056152,158.925186 148.454361,158.933563 150.211945,158.941422 
	C153.014832,157.457001 155.548172,157.115021 158.615082,158.626770 
	C178.009796,161.087357 196.951859,163.477707 214.999222,170.261871 
	C216.858444,170.960770 218.654434,171.827942 220.806366,172.759491 
	C221.230347,173.165726 221.327698,173.429535 221.272797,174.086731 
	C208.688171,172.686829 196.255798,170.893570 183.402985,169.085754 
	C182.547928,169.034363 182.113068,169.000702 181.351837,168.944748 
	C178.618256,168.638260 176.210876,168.356689 173.392548,168.056442 
	C172.546707,168.014008 172.112152,167.985245 171.352875,167.919556 
	C166.353958,167.025665 161.624756,167.124588 156.442642,167.071213 
	C153.897736,166.920105 151.809097,167.049149 149.378265,166.921234 
	C146.971115,166.901184 144.910538,166.910019 142.408569,166.905350 
	C140.207886,167.064560 138.440979,166.938675 136.349609,167.048767 
	C131.604675,167.157791 127.168350,166.907272 122.391434,167.907028 
	C121.538139,167.947601 121.103867,167.982452 120.343697,168.041138 
	C117.599815,168.323624 115.181625,168.579788 112.366592,168.858261 
	C111.537560,168.929123 111.104507,168.968201 110.345154,169.018311 
	C100.952652,170.320999 91.885719,171.604584 82.407623,172.900070 
	C81.666313,172.517807 81.504829,172.063660 81.668152,171.209229 
	C94.077118,165.311874 107.225853,163.208160 120.349129,161.222641 
	C128.373901,160.008530 136.437683,158.654190 145.142487,158.937164 
z"/>
<path fill="#50C14E" opacity="1.000000" stroke="none" 
	d="
M175.448883,140.917358 
	C183.790771,131.559280 192.218063,122.826683 200.582932,114.034721 
	C205.586716,108.775482 205.594940,108.687622 200.788147,103.249428 
	C191.976791,93.280624 183.118698,83.352768 174.219650,73.462234 
	C173.069839,72.184319 172.325882,69.968735 169.533875,72.123741 
	C168.136078,73.202637 166.211548,70.556793 165.868057,68.993477 
	C165.306290,66.436722 165.408569,63.381741 167.548782,61.579124 
	C169.520691,59.918282 171.208084,61.868301 172.562073,63.350803 
	C184.787643,76.736832 197.056046,90.084503 209.182846,103.559563 
	C214.102554,109.026260 214.003082,109.207886 208.426941,114.168320 
	C197.903412,123.529839 187.321838,132.826126 176.463608,142.340546 
	C175.944519,142.193649 175.726288,141.855743 175.448883,140.917358 
z"/>
<path fill="#11884F" opacity="1.000000" stroke="none" 
	d="
M165.617065,99.777069 
	C166.413330,100.283882 166.806198,100.559441 167.173843,100.865318 
	C174.730255,107.151802 175.157349,110.599937 170.184479,119.045959 
	C168.313507,122.223656 167.281158,125.895126 165.622971,129.645355 
	C163.427322,131.455658 162.047073,130.886276 161.043625,128.381470 
	C162.280609,122.808983 163.401993,117.574486 164.917343,112.456635 
	C165.800583,109.473648 165.868195,107.003441 163.023132,104.664078 
	C161.765045,101.812279 162.194244,100.053970 165.617065,99.777069 
z"/>
<path fill="#434243" opacity="1.000000" stroke="none" 
	d="
M219.164673,191.198273 
	C221.477264,190.868546 223.469650,190.852386 225.457809,190.752060 
	C229.886292,190.528564 233.940811,190.646759 231.945862,197.037292 
	C231.897522,197.192200 231.796249,197.404419 231.857605,197.508942 
	C233.385086,200.111176 235.625336,203.318756 232.015701,205.265610 
	C228.380341,207.226379 223.902878,206.060135 219.807327,205.802399 
	C218.322678,205.708984 218.632324,204.006439 218.637573,202.917984 
	C218.655960,199.102966 218.766815,195.288406 219.164673,191.198273 
z"/>
<path fill="#4C4A4B" opacity="1.000000" stroke="none" 
	d="
M152.686417,206.053146 
	C150.409409,206.052780 148.579681,206.040405 146.750137,206.053284 
	C143.435791,206.076599 142.067627,204.369949 141.852127,201.130844 
	C141.159622,190.722656 142.260056,189.665390 153.245178,190.730164 
	C154.191544,190.821869 155.557251,190.503113 155.664871,191.807632 
	C155.814407,193.619812 154.205200,193.214584 153.140335,193.250671 
	C151.146530,193.318237 149.147232,193.334915 147.153687,193.268433 
	C145.109665,193.200256 144.604416,194.253174 144.765137,196.068619 
	C144.965973,198.336960 146.389526,196.771042 147.261887,196.938736 
	C149.686066,197.404755 154.233871,195.678802 154.155502,198.123276 
	C154.037979,201.788849 149.676239,199.191711 147.264236,199.874817 
	C146.392883,200.121613 144.972717,198.700089 144.775452,200.856796 
	C144.601044,202.763596 145.670303,203.084534 147.196243,203.063599 
	C149.191772,203.036224 151.188660,203.036133 153.183762,203.079483 
	C154.304214,203.103806 155.747177,202.887421 155.730270,204.619995 
	C155.712708,206.417725 154.184006,205.895004 152.686417,206.053146 
z"/>
<path fill="#434243" opacity="1.000000" stroke="none" 
	d="
M162.971100,196.910141 
	C165.107773,196.930359 166.771378,196.865067 168.423798,196.972412 
	C171.166489,197.150574 172.775085,198.778809 172.815125,201.428909 
	C172.855789,204.121994 171.139771,205.772812 168.486923,205.955338 
	C165.514801,206.159836 162.518921,206.017517 159.533371,206.028656 
	C158.650009,206.031952 157.882309,205.898758 157.835144,204.767960 
	C157.780731,203.462631 158.490158,203.072693 159.680893,203.085632 
	C162.334534,203.114441 164.989059,203.102478 167.642746,203.069214 
	C168.830017,203.054321 170.131256,202.968826 170.000961,201.307312 
	C169.898773,200.004425 168.763367,199.975876 167.758179,199.922333 
	C165.613907,199.808121 163.427673,199.917435 161.335938,199.524048 
	C158.711227,199.030411 157.332611,197.263687 157.746948,194.478455 
	C158.121902,191.957916 159.691147,190.558548 162.209885,190.817566 
	C165.232956,191.128448 170.904922,189.867905 170.757416,191.621872 
	C170.471771,195.018539 165.981766,192.535599 163.368698,193.210617 
	C162.257584,193.497665 160.928802,193.291702 160.574371,194.730347 
	C160.200195,196.249176 161.163498,196.784729 162.971100,196.910141 
z"/>
<path fill="#484647" opacity="1.000000" stroke="none" 
	d="
M138.967484,195.346069 
	C138.964752,198.444534 139.021164,201.100967 138.942627,203.753403 
	C138.864243,206.401001 137.632523,206.585510 135.880280,204.948425 
	C133.016037,202.272446 130.212143,199.531876 127.010208,196.461243 
	C125.957077,199.201996 126.606041,201.824219 126.397095,204.332184 
	C126.322571,205.226608 126.143890,205.973557 125.052864,205.978760 
	C123.922943,205.984161 123.777000,205.196121 123.776237,204.314301 
	C123.772934,200.498230 123.731369,196.681671 123.778290,192.866226 
	C123.812889,190.052505 125.123718,190.147430 126.804092,191.725235 
	C129.682968,194.428345 132.499664,197.197678 135.428513,200.022217 
	C136.937836,198.595184 135.774582,196.657822 136.198196,195.021133 
	C136.564819,193.604614 135.039795,191.033112 137.536453,190.977997 
	C140.138992,190.920563 138.481995,193.547623 138.967484,195.346069 
z"/>
<path fill="#0AA866" opacity="1.000000" stroke="none" 
	d="
M180.669449,116.120819 
	C181.678635,114.153038 182.356598,112.429382 183.384384,110.948532 
	C185.580933,107.783722 185.046066,105.191711 182.005753,102.583214 
	C180.586456,100.047806 181.377960,98.386795 183.692108,96.882904 
	C186.703918,99.536621 189.300201,102.325645 192.049316,105.406860 
	C192.646271,106.593170 192.903824,107.515770 192.482178,108.982613 
	C189.851288,112.902557 187.371094,116.358986 184.608841,119.995895 
	C182.730545,120.774574 181.946457,119.554070 180.786163,118.359985 
	C180.391602,117.517677 180.366974,116.999969 180.669449,116.120819 
z"/>
<path fill="#484647" opacity="1.000000" stroke="none" 
	d="
M115.540009,206.070312 
	C106.373444,206.094116 104.300705,204.218231 104.745621,196.926880 
	C104.955055,193.494598 106.434219,191.091202 109.920731,190.642929 
	C113.679924,190.159622 117.726288,189.472809 120.268333,193.470078 
	C123.100052,197.922821 121.008583,203.870972 115.540009,206.070312 
z"/>
<path fill="#484647" opacity="1.000000" stroke="none" 
	d="
M89.486359,195.445419 
	C92.146805,198.102036 95.225441,196.832474 98.014381,196.704514 
	C100.049545,196.611115 98.941689,194.281265 99.143280,192.953873 
	C99.298477,191.931946 99.216209,190.843216 100.597816,190.841461 
	C102.022766,190.839645 101.966202,191.965286 101.965500,192.977798 
	C101.963066,196.463989 101.997452,199.950684 101.944115,203.436066 
	C101.928108,204.481491 102.363167,206.023468 100.472771,205.909286 
	C99.091553,205.825867 99.074829,204.607330 99.211838,203.662567 
	C99.927185,198.729309 96.360855,200.105652 93.820595,199.919189 
	C91.090294,199.718811 88.719872,199.831741 89.370911,203.688873 
	C89.520744,204.576584 89.638336,205.874451 88.198441,205.953918 
	C86.268448,206.060425 86.809975,204.484863 86.786446,203.460587 
	C86.721664,200.639893 86.611862,197.805206 86.826408,194.999481 
	C86.934029,193.591980 85.583984,190.986710 88.078056,190.987610 
	C90.522316,190.988510 88.958488,193.629257 89.486359,195.445419 
z"/>
<path fill="#484647" opacity="1.000000" stroke="none" 
	d="
M192.806976,196.892715 
	C195.912521,196.047195 194.333466,193.821136 194.748795,192.258728 
	C194.928848,191.581436 195.051666,190.937241 195.823166,190.841766 
	C196.836685,190.716354 197.374756,191.297668 197.378510,192.275864 
	C197.394501,196.427216 197.387253,200.578766 197.362885,204.730072 
	C197.358505,205.476822 196.914658,205.936081 196.151337,205.976120 
	C195.050339,206.033875 194.917816,205.310333 194.745148,204.409973 
	C194.461441,202.930450 195.768219,200.606323 193.547104,200.142746 
	C191.163574,199.645264 188.565964,199.779449 186.121292,200.096649 
	C184.243317,200.340302 185.179489,202.225739 184.981110,203.404144 
	C184.801331,204.472290 185.275284,206.044769 183.488495,205.924408 
	C181.804520,205.810944 182.211151,204.266525 182.197418,203.191742 
	C182.152878,199.704819 182.187897,196.216934 182.181061,192.729446 
	C182.179337,191.853287 182.284088,191.033524 183.342972,190.875015 
	C184.331955,190.726974 185.058151,191.226578 184.924561,192.215927 
	C183.972427,199.266022 189.271271,196.313126 192.806976,196.892715 
z"/>
<path fill="#525051" opacity="1.000000" stroke="none" 
	d="
M72.373489,201.693420 
	C71.545807,203.272491 73.276222,206.038986 70.623985,205.853333 
	C68.291603,205.690094 69.611565,203.205093 69.311943,201.757767 
	C69.180733,201.123917 69.289742,200.440323 69.289833,199.779312 
	C69.291031,190.868118 71.961967,188.784897 80.797867,190.824310 
	C83.976357,191.557938 84.895950,193.920959 84.821541,196.788589 
	C84.750069,199.542953 83.486572,201.654007 80.564720,202.006958 
	C78.451408,202.262222 76.279106,202.029190 73.706993,201.941010 
	C71.955147,198.802277 74.247559,198.465149 76.262939,197.845978 
	C77.550606,197.450378 79.593094,197.992569 79.571571,195.753708 
	C79.562820,194.843018 78.450127,194.615997 77.624313,194.510422 
	C75.856506,194.284424 74.166229,194.480865 73.609108,196.516388 
	C73.172493,198.111633 72.632423,199.695648 72.373489,201.693420 
z"/>
<path fill="#4C4A4B" opacity="1.000000" stroke="none" 
	d="
M211.802444,206.053101 
	C201.924408,206.026917 198.989914,202.605392 200.150528,193.049774 
	C200.271179,192.056412 200.082626,190.923218 201.490555,190.838470 
	C202.900513,190.753586 202.984222,191.797455 202.977036,192.851624 
	C202.967972,194.180176 202.957581,195.509247 202.983673,196.837402 
	C203.088455,202.171448 205.862717,204.186111 211.116943,203.102341 
	C213.081940,202.697021 212.881912,201.508881 212.893295,200.210892 
	C212.916626,197.553955 212.902725,194.896698 212.927582,192.239777 
	C212.934067,191.546219 213.129120,190.928787 213.988464,190.868469 
	C214.771225,190.813538 215.350067,191.221664 215.349075,191.952332 
	C215.343262,196.262573 215.399307,200.581238 215.132309,204.878296 
	C215.039337,206.374954 213.344696,205.942993 211.802444,206.053101 
z"/>
<path fill="#394F44" opacity="1.000000" stroke="none" 
	d="
M127.683914,62.727806 
	C128.897552,60.488064 129.972275,60.556595 131.464752,62.207390 
	C134.171829,65.201614 137.080414,68.013634 140.032944,71.193344 
	C140.735458,73.293602 140.814438,75.050056 139.265213,76.961273 
	C137.024734,75.275009 135.133926,73.299370 133.093109,71.008728 
	C132.043259,70.431717 131.103897,69.845413 130.435852,71.293770 
	C126.831383,71.166512 125.159431,69.484909 126.895676,65.358147 
	C127.042130,64.296753 127.264854,63.659714 127.683914,62.727806 
z"/>
<path fill="#2B6147" opacity="1.000000" stroke="none" 
	d="
M139.026215,77.561325 
	C139.286423,75.609909 139.657288,73.969162 140.094574,71.906693 
	C143.663727,75.160599 147.166443,78.836220 150.799942,82.822395 
	C151.608246,85.106689 151.034302,86.733444 149.185379,88.253845 
	C145.055954,85.383301 142.354797,81.389984 139.026215,77.561325 
z"/>
<path fill="#23BB8D" opacity="1.000000" stroke="none" 
	d="
M174.159363,93.181107 
	C171.261032,90.499878 168.684402,87.731453 165.983627,84.658417 
	C164.783615,81.910431 165.117706,80.130089 168.505219,79.813004 
	C171.850922,83.149467 174.789169,86.266953 177.829361,89.702011 
	C176.973480,91.260139 175.692673,92.138191 174.159363,93.181107 
z"/>
<path fill="#28C39E" opacity="1.000000" stroke="none" 
	d="
M168.800552,79.718765 
	C166.641556,80.143372 165.975052,81.596779 165.901703,83.967705 
	C162.936172,81.196007 160.012878,78.038193 156.972351,74.570160 
	C156.428848,71.716408 157.256714,70.269272 160.438660,70.819801 
	C163.426208,73.849220 166.057327,76.627388 168.800552,79.718765 
z"/>
<path fill="#258557" opacity="1.000000" stroke="none" 
	d="
M160.784821,128.305771 
	C162.088577,128.938705 162.894211,130.430954 165.055740,129.957901 
	C164.230072,134.861252 161.083496,138.925110 159.320953,143.953918 
	C158.040588,145.298386 157.298676,148.695221 155.797348,144.355865 
	C157.536636,138.880890 159.056229,133.748962 160.784821,128.305771 
z"/>
<path fill="#2A7752" opacity="1.000000" stroke="none" 
	d="
M148.919724,88.711510 
	C149.428070,86.858414 150.036697,85.317307 150.788025,83.454575 
	C153.232376,85.492836 155.534058,87.852722 157.949646,90.521339 
	C159.480087,92.975769 159.537247,95.033852 157.237320,97.185364 
	C153.782578,95.007988 151.480743,91.941910 148.919724,88.711510 
z"/>
<path fill="#12B077" opacity="1.000000" stroke="none" 
	d="
M173.955917,93.576561 
	C174.670181,91.886902 174.934265,89.912041 177.570831,90.028641 
	C179.925552,92.056213 181.919815,94.092834 184.010864,96.438522 
	C183.449707,98.354805 181.717682,99.478455 181.930710,101.879036 
	C179.285599,99.469978 176.679901,96.677399 173.955917,93.576561 
z"/>
<path fill="#34D1BC" opacity="1.000000" stroke="none" 
	d="
M151.302673,67.946762 
	C150.322266,71.197777 149.131927,71.835922 146.962860,69.195709 
	C144.340698,66.003990 145.335587,62.520874 147.331955,60.126495 
	C149.878693,57.071987 151.368576,60.604374 153.083405,62.549992 
	C153.203293,64.666328 152.550720,66.227478 151.302673,67.946762 
z"/>
<path fill="#258557" opacity="1.000000" stroke="none" 
	d="
M156.914093,97.711105 
	C157.872986,95.637680 158.150757,93.704285 158.044647,91.257538 
	C160.715317,93.654480 163.367065,96.478889 166.025513,99.648750 
	C163.761658,100.098579 162.957687,101.475601 162.909241,103.933060 
	C160.918701,102.220726 158.970139,100.119995 156.914093,97.711105 
z"/>
<path fill="#33CCB1" opacity="1.000000" stroke="none" 
	d="
M151.334442,68.403336 
	C150.825821,66.357147 151.382370,64.727798 152.896439,63.087433 
	C156.231003,64.852821 158.300049,67.757866 160.693527,70.758240 
	C158.705612,70.656960 157.863541,72.039124 157.001617,73.931801 
	C154.547409,72.878052 153.272537,70.541061 151.334442,68.403336 
z"/>
<path fill="#EFEEEE" opacity="1.000000" stroke="none" 
	d="
M72.538834,202.010590 
	C72.213951,200.874741 72.086311,199.721817 72.078049,198.568039 
	C72.042198,193.564255 75.242561,191.515060 80.043320,193.407532 
	C81.478592,193.973312 82.016266,194.999588 82.038429,196.484375 
	C82.066757,198.381073 80.952759,198.972137 79.325279,199.393005 
	C77.313278,199.913315 74.537201,197.906342 73.303215,201.502304 
	C73.117577,201.909790 72.954292,201.951447 72.538834,202.010590 
z"/>
<path fill="#12B077" opacity="1.000000" stroke="none" 
	d="
M180.537888,117.738403 
	C182.181274,117.905228 182.895218,118.929115 184.016556,119.989143 
	C181.915680,123.546288 179.818649,127.158211 176.421783,130.143188 
	C174.798401,129.674942 174.252151,128.668350 174.556656,126.798218 
	C176.077621,123.794884 177.495056,121.247154 179.062668,118.377823 
	C179.473389,117.685097 179.834305,117.525139 180.537888,117.738403 
z"/>
<path fill="#23BB8D" opacity="1.000000" stroke="none" 
	d="
M174.372681,126.544678 
	C175.031799,127.395393 175.403397,128.448181 175.937225,129.885223 
	C174.406509,135.477203 169.406693,138.235962 166.544113,142.964905 
	C165.961899,143.226089 165.663971,143.310410 164.978989,143.138031 
	C167.006012,137.061630 170.606598,131.940094 174.372681,126.544678 
z"/>
<path fill="#70CC6E" opacity="1.000000" stroke="none" 
	d="
M175.101929,140.480347 
	C175.529556,140.682007 175.669357,141.047165 175.985977,141.971924 
	C172.964523,145.913193 169.662674,149.172180 165.310120,151.720078 
	C166.676544,146.776367 171.419052,144.291016 175.101929,140.480347 
z"/>
<path fill="#E7F6EE" opacity="1.000000" stroke="none" 
	d="
M159.018311,158.686279 
	C156.528030,158.937805 154.030731,158.962463 151.052368,158.964020 
	C150.993561,157.208435 151.415787,155.475952 151.942795,153.376984 
	C152.293594,152.706467 152.601990,152.504440 153.259949,152.459473 
	C153.859070,152.617508 154.075073,152.842224 154.519379,152.962250 
	C154.922852,152.715561 155.389664,152.565781 155.616959,152.657578 
	C156.048950,153.059052 156.253632,153.368713 156.698975,153.821350 
	C157.815948,154.063705 158.420837,153.586456 159.180267,152.773712 
	C159.633011,152.197586 159.956955,151.945801 160.650543,151.847076 
	C160.970612,152.374817 160.982544,152.825882 160.995087,153.615417 
	C161.111786,154.101913 161.227905,154.249969 161.322784,154.679504 
	C161.074127,155.266632 160.790375,155.502625 160.228424,155.840881 
	C160.016388,156.024994 159.998779,156.007660 160.007935,156.010468 
	C159.769180,156.218979 159.535004,156.439240 159.154297,156.854431 
	C158.994080,157.034805 158.991150,156.990463 159.013321,156.991913 
	C158.899963,157.157684 158.764450,157.321991 158.815125,157.745911 
	C159.001312,158.005539 159.011292,158.459412 159.018311,158.686279 
z"/>
<path fill="#C8E4CD" opacity="1.000000" stroke="none" 
	d="
M154.017853,153.278488 
	C153.319977,153.027252 152.956482,153.014343 152.320282,153.005981 
	C152.639526,150.216187 153.231476,147.421844 153.991913,144.352219 
	C154.469711,144.062469 154.779037,144.048004 155.552689,144.023193 
	C156.121658,144.744598 155.793243,145.741913 156.945908,145.892227 
	C158.079010,146.039978 157.982498,144.901779 158.752869,144.275574 
	C159.001205,145.590302 159.437943,147.153992 157.332764,147.942810 
	C155.760956,149.266296 155.734055,150.927597 155.208527,152.763062 
	C155.002823,153.041275 155.007782,152.999283 155.014496,153.019928 
	C154.798233,153.199310 154.575226,153.358063 154.017853,153.278488 
z"/>
<path fill="#71D8C2" opacity="1.000000" stroke="none" 
	d="
M161.102966,151.633942 
	C160.676666,152.103943 160.394638,152.284134 159.966904,152.672272 
	C159.378906,153.033432 158.997192,152.939743 158.711914,152.275909 
	C159.346451,149.691910 160.754440,147.888367 162.373474,145.877136 
	C163.155106,145.756454 163.548340,145.983765 163.963242,146.709229 
	C163.710815,148.862015 162.183105,149.908447 161.102966,151.633942 
z"/>
<path fill="#C8E4CD" opacity="1.000000" stroke="none" 
	d="
M81.453110,170.884918 
	C81.872543,171.323013 81.920738,171.777130 81.982697,172.571594 
	C79.851265,174.767731 77.402855,173.718979 74.213120,173.953674 
	C76.700157,171.922806 78.714905,171.023911 81.453110,170.884918 
z"/>
<path fill="#C8E4CD" opacity="1.000000" stroke="none" 
	d="
M149.278976,167.174805 
	C151.104248,165.472321 153.290573,165.975525 155.729935,166.789932 
	C153.908279,168.508560 151.718872,168.009521 149.278976,167.174805 
z"/>
<path fill="#C8E4CD" opacity="1.000000" stroke="none" 
	d="
M136.282349,167.316788 
	C137.654724,165.437927 139.565170,166.046036 141.706039,166.648010 
	C140.337753,168.553818 138.425995,167.933960 136.282349,167.316788 
z"/>
<path fill="#33CCB1" opacity="1.000000" stroke="none" 
	d="
M164.326385,146.837677 
	C163.724243,146.787964 163.376114,146.527313 162.844437,145.989624 
	C163.133286,144.858597 163.605698,144.004639 164.335022,143.015991 
	C164.869965,142.924423 165.147980,142.967560 165.842911,143.076233 
	C166.302917,144.593964 165.493866,145.635498 164.326385,146.837677 
z"/>
<path fill="#C8E4CD" opacity="1.000000" stroke="none" 
	d="
M221.375916,174.654053 
	C221.108368,174.217209 221.096191,173.954330 221.108505,173.296692 
	C222.613510,172.965729 224.026016,173.211029 225.167496,174.421799 
	C224.058655,175.479309 222.820847,174.965240 221.375916,174.654053 
z"/>
<path fill="#45BD8C" opacity="1.000000" stroke="none" 
	d="
M155.210693,152.961121 
	C155.035370,151.292252 154.157639,149.320038 156.608765,148.051636 
	C157.313339,149.540878 156.419983,150.744125 155.915039,152.405930 
	C155.844254,152.749374 155.418564,152.880966 155.210693,152.961121 
z"/>
<path fill="#BEE8BD" opacity="1.000000" stroke="none" 
	d="
M158.514557,152.094025 
	C158.919434,152.231506 159.129730,152.477386 159.599915,152.785187 
	C159.043121,153.685989 159.292770,156.240768 156.984894,154.242249 
	C157.386841,153.388016 157.834076,152.811752 158.514557,152.094025 
z"/>
<path fill="#45BD8C" opacity="1.000000" stroke="none" 
	d="
M192.592316,109.282700 
	C192.265060,108.509598 192.198639,107.573074 192.167175,106.167801 
	C194.054047,106.527946 193.853439,107.747498 192.592316,109.282700 
z"/>
<path fill="#525051" opacity="1.000000" stroke="none" 
	d="
M130.744202,71.301071 
	C130.150482,70.856842 129.856583,70.077271 130.658386,69.511635 
	C131.503738,68.915260 132.065948,69.626236 132.787872,70.414627 
	C132.257492,70.588623 131.501358,70.063484 130.744202,71.301071 
z"/>
<path fill="#C8E4CD" opacity="1.000000" stroke="none" 
	d="
M110.174850,169.245117 
	C110.393356,168.344681 110.902817,168.052658 111.813309,168.681793 
	C111.607452,169.599258 111.106407,169.920349 110.174850,169.245117 
z"/>
<path fill="#C8E4CD" opacity="1.000000" stroke="none" 
	d="
M181.155136,169.144028 
	C181.490189,168.248352 182.040970,168.064926 182.852402,168.845612 
	C182.513504,169.724319 181.964645,169.921097 181.155136,169.144028 
z"/>
<path fill="#C8E4CD" opacity="1.000000" stroke="none" 
	d="
M120.176010,168.269455 
	C120.390182,167.367172 120.895073,167.053299 121.817184,167.706497 
	C121.602875,168.613190 121.098083,168.920761 120.176010,168.269455 
z"/>
<path fill="#525051" opacity="1.000000" stroke="none" 
	d="
M127.535889,62.530281 
	C127.687035,63.098400 127.626755,63.804581 127.297287,64.754234 
	C127.126892,64.221252 127.225677,63.444794 127.535889,62.530281 
z"/>
<path fill="#45BD8C" opacity="1.000000" stroke="none" 
	d="
M180.856110,117.570679 
	C180.443848,117.967110 180.094009,118.005302 179.478516,118.049866 
	C179.579468,117.377594 179.946060,116.698967 180.577393,115.893494 
	C180.867599,116.248581 180.893066,116.730515 180.856110,117.570679 
z"/>
<path fill="#C8E4CD" opacity="1.000000" stroke="none" 
	d="
M171.154816,168.115875 
	C171.495209,167.231277 172.046204,167.062241 172.849823,167.817139 
	C172.517578,168.708084 171.970093,168.916306 171.154816,168.115875 
z"/>
<path fill="#BEE8BD" opacity="1.000000" stroke="none" 
	d="
M165.009735,151.937363 
	C164.894836,152.577072 164.516602,152.980240 163.803314,152.949997 
	C163.708954,152.945999 163.539078,152.626892 163.546509,152.620560 
	C163.836868,152.372879 164.143753,152.144577 164.754074,151.935242 
	C165.059662,151.956757 164.987930,151.967346 165.009735,151.937363 
z"/>
<path fill="#C8E4CD" opacity="1.000000" stroke="none" 
	d="
M160.327225,156.050751 
	C160.054306,155.693375 160.199005,155.417831 160.656555,155.079681 
	C161.079208,154.847824 161.295761,154.734665 161.806580,154.839966 
	C161.613251,155.397781 161.125656,155.737152 160.327225,156.050751 
z"/>
<path fill="#BEE8BD" opacity="1.000000" stroke="none" 
	d="
M162.047028,154.771912 
	C161.895065,155.043152 161.689255,155.027893 161.173050,154.986801 
	C160.891983,154.794235 160.921310,154.627502 160.973160,154.207336 
	C161.328186,154.131058 161.660706,154.308228 162.047028,154.771912 
z"/>
<path fill="#C8E4CD" opacity="1.000000" stroke="none" 
	d="
M159.241394,156.952484 
	C159.180939,156.761398 159.367783,156.487976 159.785858,156.113922 
	C159.840958,156.298904 159.664825,156.584518 159.241394,156.952484 
z"/>
<path fill="#C8E4CD" opacity="1.000000" stroke="none" 
	d="
M159.021698,157.752899 
	C158.831863,157.832291 158.647278,157.670029 158.506516,157.475967 
	C158.480331,157.439850 158.630249,157.275986 158.867188,157.082214 
	C159.037689,157.162308 159.039886,157.331268 159.021698,157.752899 
z"/>
<path fill="#F9FDF9" opacity="1.000000" stroke="none" 
	d="
M118.891525,86.281052 
	C118.896927,83.437820 119.013031,80.801003 120.613258,77.810104 
	C129.269058,87.522072 137.720856,97.021729 146.200012,106.496910 
	C147.206177,107.621277 147.235611,108.851707 147.024719,110.209930 
	C145.373184,120.846283 142.834030,131.281784 139.996323,142.599884 
	C134.718933,137.375320 130.966888,131.816299 126.554138,126.364311 
	C127.839355,124.433594 126.086327,123.504936 125.365494,122.015030 
	C124.778236,120.832970 124.449669,119.916031 123.849312,118.690628 
	C119.906380,110.145973 119.178375,101.476761 119.636795,92.238831 
	C119.359741,90.086807 120.502090,88.182930 118.891525,86.281052 
z"/>
<path fill="#BEE8BD" opacity="1.000000" stroke="none" 
	d="
M118.409180,86.319275 
	C123.556175,85.448807 120.025703,89.099220 120.789032,90.919983 
	C119.078850,96.574020 118.652878,102.046661 117.781265,107.434433 
	C117.059677,111.894882 121.014862,114.068451 123.122452,117.518829 
	C123.821564,118.529366 124.166328,119.360962 124.897141,120.330406 
	C125.126602,120.814606 125.200424,121.015549 125.293564,121.535629 
	C125.106056,122.237320 124.807861,122.519180 124.160416,122.885895 
	C120.965073,119.578026 118.034927,116.045349 115.044792,112.564194 
	C113.825745,111.144966 113.891342,109.634705 114.217209,107.934525 
	C115.579086,100.829323 116.856667,93.707970 118.409180,86.319275 
z"/>
<path fill="#E7F6EE" opacity="1.000000" stroke="none" 
	d="
M148.115143,135.960815 
	C145.465057,134.484879 145.215546,132.557037 146.348175,130.393112 
	C146.918869,129.302780 147.989319,128.749207 149.244476,129.128357 
	C150.793198,129.596207 151.743210,130.780487 151.912689,132.329407 
	C152.176178,134.737869 150.876541,135.945496 148.115143,135.960815 
z"/>
<path fill="#BEE8BD" opacity="1.000000" stroke="none" 
	d="
M126.183151,121.755676 
	C127.542778,123.241463 130.044922,124.316879 126.699356,126.058243 
	C126.138351,126.090858 125.996468,125.999046 125.954903,125.649529 
	C125.754784,124.849213 125.524940,124.187775 125.165909,123.240982 
	C124.925499,122.987091 125.009308,123.013008 124.996666,123.055008 
	C124.984024,123.097008 124.744263,122.717186 124.761185,122.493240 
	C124.778107,122.269287 124.915329,122.102631 124.983841,122.019226 
	C125.306770,121.799530 125.561180,121.663254 126.183151,121.755676 
z"/>
<path fill="#F9FDF9" opacity="1.000000" stroke="none" 
	d="
M124.793625,123.341568 
	C125.250641,123.588593 125.575775,124.190102 125.939026,125.152191 
	C125.538673,124.907196 125.100204,124.301628 124.793625,123.341568 
z"/>
<path fill="#F9FDF9" opacity="1.000000" stroke="none" 
	d="
M124.578987,122.330002 
	C124.778107,122.269287 124.888283,122.681259 124.936157,122.889130 
	C124.805840,123.210030 124.627663,123.323059 124.184418,123.263031 
	C124.043327,122.837425 124.196838,122.604340 124.578987,122.330002 
z"/>
<path fill="#E3E3E3" opacity="1.000000" stroke="none" 
	d="
M221.516708,200.229126 
	C220.671967,192.724716 220.672897,192.711609 226.810333,193.145508 
	C228.028778,193.231659 229.845459,192.695068 229.799316,194.743362 
	C229.756393,196.648849 228.175888,196.832672 226.565460,197.053589 
	C225.135941,197.249695 222.469223,195.667496 222.928223,199.541367 
	C222.740616,200.288086 222.308670,200.438797 221.516708,200.229126 
z"/>
<path fill="#F9FDF9" opacity="1.000000" stroke="none" 
	d="
M221.151947,200.356812 
	C221.637894,200.036407 222.058304,200.040237 222.790558,199.996201 
	C225.231949,199.980606 227.365005,199.951309 229.489304,200.074005 
	C230.400101,200.126617 230.905716,200.865601 230.940048,201.771637 
	C230.982391,202.888474 230.128052,203.051498 229.296570,203.064377 
	C227.162994,203.097427 225.028564,203.074524 222.450714,202.982681 
	C221.847000,202.766235 221.687027,202.641083 221.372284,202.253571 
	C221.173782,201.554474 221.130081,201.117767 221.151947,200.356812 
z"/>
<path fill="#E3E3E3" opacity="1.000000" stroke="none" 
	d="
M221.161606,202.255661 
	C221.488571,202.089432 221.696182,202.263443 221.923630,202.702271 
	C221.706543,202.767624 221.406143,202.643875 221.161606,202.255661 
z"/>
<path fill="#F2F2F2" opacity="1.000000" stroke="none" 
	d="
M107.559509,195.692429 
	C109.659195,191.864990 112.932678,193.081772 115.753571,193.266495 
	C117.586372,193.386505 118.489685,195.055252 118.621124,196.863586 
	C118.866432,200.238953 118.720085,203.333481 114.065788,203.446320 
	C110.226974,203.539444 106.827126,203.323074 107.324852,198.074844 
	C107.387558,197.413727 107.400032,196.747818 107.559509,195.692429 
z"/>
<path fill="#AFB0B4" opacity="1.000000" stroke="none" 
	d="
M153.738281,153.334778 
	C153.906448,153.006226 154.129410,152.972290 154.686798,152.989471 
	C154.903214,153.487610 154.922699,154.160889 154.638107,154.333878 
	C154.072037,154.677933 153.953659,154.032120 153.738281,153.334778 
z"/>
<path fill="#C8E4CD" opacity="1.000000" stroke="none" 
	d="
M153.381500,156.664688 
	C153.550140,156.798065 153.576355,157.038330 153.602554,157.278595 
	C153.481400,157.109589 153.360229,156.940582 153.381500,156.664688 
z"/>
<path fill="#55C353" opacity="1.000000" stroke="none" 
	d="
M123.354515,119.210114 
	C112.625824,110.799522 117.237122,100.964645 120.326088,91.323746 
	C120.731293,100.510178 120.795761,109.706352 125.099579,118.602272 
	C124.763397,119.388557 124.271500,119.538589 123.354515,119.210114 
z"/>
<path fill="#70CC6E" opacity="1.000000" stroke="none" 
	d="
M123.123657,119.272552 
	C123.490807,118.998299 123.972069,119.002457 124.814255,118.991234 
	C125.590454,119.756332 126.005745,120.536804 126.485886,121.650833 
	C126.300209,121.998138 126.049690,122.011902 125.425766,121.980743 
	C124.447495,121.140862 123.842636,120.345909 123.123657,119.272552 
z"/>
</svg>